<svg width="64" height="64" viewBox="0 0 64 64" fill="none" xmlns="http://www.w3.org/2000/svg">
  <rect width="64" height="64" fill="#fffaf0"/>

  <!-- 위 잎 -->
  <path
    d="M32 17c5.4 4.8 5.4 10.4 0 15.2C26.6 27.4 26.6 21.8 32 17Z"
    fill="#2b2926"
    stroke="#2b2926"
    stroke-width="3.2"
    stroke-linecap="round"
    stroke-linejoin="round"
  />

  <!-- 오른쪽 잎 -->
  <path
    d="M47 32c-4.8 5.4-10.4 5.4-15.2 0C36.6 26.6 42.2 26.6 47 32Z"
    stroke="#2b2926"
    stroke-width="3.2"
    stroke-linecap="round"
    stroke-linejoin="round"
  />

  <!-- 아래 잎 -->
  <path
    d="M32 47c-5.4-4.8-5.4-10.4 0-15.2C37.4 36.6 37.4 42.2 32 47Z"
    stroke="#2b2926"
    stroke-width="3.2"
    stroke-linecap="round"
    stroke-linejoin="round"
  />

  <!-- 왼쪽 잎 (벚꽃식 홈 추가) -->
  <path
    d="
      M17 32
      C20 27 25.5 26.5 31.5 30
      L28 32
      L31.5 34
      C25.5 37.5 20 37 17 32
      Z
    "
    fill="#2b2926"
    stroke="#2b2926"
    stroke-width="3.2"
    stroke-linecap="round"
    stroke-linejoin="round"
  />

  <!-- 홈 강조 -->
  <path
    d="M31.5 30 L28 32 L31.5 34"
    stroke="#fffaf0"
    stroke-width="2"
    stroke-linecap="round"
    stroke-linejoin="round"
  />

  <!-- 왼쪽 잎 구멍 -->
  <circle cx="24.5" cy="32" r="2.2" fill="#fffaf0"/>

  <!-- 중앙 점 -->
  <circle cx="32" cy="32" r="3.2" fill="#2b2926"/>
</svg>